<mxfile host="app.diagrams.net" modified="2023-11-20T17:09:48.615Z" agent="Mozilla/5.0 (Windows NT 10.0; Win64; x64) AppleWebKit/537.36 (KHTML, like Gecko) Chrome/119.0.0.0 Safari/537.36" version="22.1.3" etag="t03Lq5MxZgEX48JetHbA" type="github">
  <diagram name="Σελίδα-1" id="RU3YL4qexRmIuHLBYf2H">
    <mxGraphModel>
      <root>
        <mxCell id="0" />
        <mxCell id="1" parent="0" />
      </root>
    </mxGraphModel>
  </diagram>
</mxfile>
